<svg width="512" height="512" viewBox="0 0 512 512" fill="none" xmlns="http://www.w3.org/2000/svg">
<path d="M472.909 218.304C449.702 140.941 413.696 7.32159 322.854 24.9088C322.854 24.9088 120.179 57.408 86.1439 80.6144C52.0959 103.821 11.8783 154.867 36.6207 246.157C61.3759 337.421 104.691 407.053 120.166 434.893C135.642 462.746 202.163 506.061 271.782 481.318C341.402 456.563 440.422 363.738 457.434 351.36C474.47 338.982 496.115 295.654 472.909 218.304ZM405.184 334.554C403.738 348.774 394.624 361.088 381.414 366.554C345.613 381.35 276.467 391.181 231.59 399.872C173.35 411.136 151.757 384.845 147.994 366.054C144.23 347.264 147.994 153.792 147.994 153.792C148.237 140.608 157.798 117.35 184.102 108.89C210.394 100.429 309.402 114.253 359.181 119.885C408.96 125.517 409.114 153.792 409.114 174.464C409.088 193.062 410.918 278.63 405.184 334.554Z" fill="white"/>
</svg>
